<svg width="169" height="26" viewBox="0 0 169 26" fill="none" xmlns="http://www.w3.org/2000/svg">
<path d="M17.5 21.9586V13.6253C17.5 13.349 17.3771 13.0841 17.1583 12.8887C16.9395 12.6934 16.6428 12.5836 16.3333 12.5836H11.6667C11.3572 12.5836 11.0605 12.6934 10.8417 12.8887C10.6229 13.0841 10.5 13.349 10.5 13.6253V21.9586" stroke="#55B685" stroke-width="0.962768" stroke-linecap="round" stroke-linejoin="round"/>
<path d="M3.5 10.5003C3.49992 10.1972 3.57389 9.8978 3.71675 9.62289C3.85962 9.34799 4.06793 9.10423 4.32717 8.9086L12.4938 2.65965C12.915 2.34184 13.4486 2.16748 14 2.16748C14.5514 2.16748 15.085 2.34184 15.5062 2.65965L23.6728 8.9086C23.9321 9.10423 24.1404 9.34799 24.2832 9.62289C24.4261 9.8978 24.5001 10.1972 24.5 10.5003V19.8753C24.5 20.4278 24.2542 20.9577 23.8166 21.3484C23.379 21.7391 22.7855 21.9586 22.1667 21.9586H5.83333C5.21449 21.9586 4.621 21.7391 4.18342 21.3484C3.74583 20.9577 3.5 20.4278 3.5 19.8753V10.5003Z" stroke="#55B685" stroke-width="0.962768" stroke-linecap="round" stroke-linejoin="round"/>
<path d="M37.9318 20.0836V5.53816H42.6264C43.6586 5.53816 44.5204 5.72519 45.2116 6.09924C45.9077 6.46856 46.4309 6.98229 46.7812 7.64044C47.1364 8.29384 47.3139 9.04432 47.3139 9.89186C47.3139 10.7394 47.1364 11.4875 46.7812 12.1362C46.4309 12.7848 45.91 13.2915 45.2188 13.6561C44.5275 14.0206 43.6705 14.2029 42.6477 14.2029H38.6491V12.9884H42.6122C43.3698 12.9884 43.9995 12.863 44.5014 12.612C45.008 12.3611 45.3845 12.0036 45.6307 11.5396C45.8816 11.0756 46.0071 10.5263 46.0071 9.89186C46.0071 9.25739 45.8816 8.70341 45.6307 8.22992C45.3797 7.75171 45.0009 7.38239 44.4943 7.12197C43.9924 6.86155 43.358 6.73134 42.5909 6.73134H39.2599V20.0836H37.9318ZM44.3452 13.5211L47.9247 20.0836H46.3906L42.8466 13.5211H44.3452ZM54.5795 20.3109C53.5616 20.3109 52.6809 20.0741 51.9375 19.6007C51.1941 19.1224 50.6188 18.4619 50.2116 17.6191C49.8092 16.7716 49.608 15.7962 49.608 14.693C49.608 13.5945 49.8092 12.6191 50.2116 11.7669C50.6188 10.9098 51.1799 10.2399 51.8949 9.75691C52.6146 9.26922 53.4455 9.02538 54.3878 9.02538C54.9796 9.02538 55.5502 9.13428 56.0994 9.35208C56.6487 9.56515 57.1411 9.89422 57.5767 10.3393C58.017 10.7796 58.3651 11.336 58.6207 12.0083C58.8764 12.6759 59.0043 13.4667 59.0043 14.3805V15.0055H50.4815V13.8904H57.7116C57.7116 13.1897 57.5696 12.5599 57.2855 12.0012C57.0062 11.4378 56.6155 10.9927 56.1136 10.666C55.6165 10.3393 55.0412 10.1759 54.3878 10.1759C53.6965 10.1759 53.0881 10.3606 52.5625 10.7299C52.0369 11.0992 51.625 11.5869 51.3267 12.193C51.0331 12.7991 50.884 13.4619 50.8793 14.1816V14.8492C50.8793 15.7157 51.0284 16.4733 51.3267 17.122C51.6297 17.7659 52.0582 18.2654 52.6122 18.6205C53.1662 18.9757 53.822 19.1532 54.5795 19.1532C55.0956 19.1532 55.5478 19.0727 55.9361 18.9117C56.3291 18.7508 56.6581 18.5353 56.9233 18.2654C57.1932 17.9908 57.3968 17.6902 57.5341 17.3634L58.7344 17.7541C58.5687 18.2134 58.2964 18.6371 57.9176 19.0254C57.5436 19.4136 57.0748 19.7261 56.5114 19.9629C55.9527 20.1949 55.3087 20.3109 54.5795 20.3109ZM64.837 20.3322C64.1789 20.3322 63.5775 20.2044 63.033 19.9487C62.4885 19.6883 62.0553 19.3142 61.7333 18.8265C61.4113 18.3341 61.2504 17.7375 61.2504 17.0367C61.2504 16.497 61.3522 16.0424 61.5558 15.6731C61.7594 15.3038 62.0482 15.0008 62.4222 14.764C62.7963 14.5273 63.239 14.3402 63.7504 14.2029C64.2617 14.0656 64.8252 13.9591 65.4407 13.8833C66.0515 13.8076 66.5676 13.7413 66.989 13.6845C67.4151 13.6277 67.7395 13.5377 67.962 13.4146C68.1845 13.2915 68.2958 13.0926 68.2958 12.818V12.5623C68.2958 11.8189 68.0733 11.2342 67.6282 10.808C67.1879 10.3772 66.5534 10.1617 65.7248 10.1617C64.9388 10.1617 64.2972 10.3346 63.8001 10.6802C63.3076 11.0259 62.962 11.433 62.7631 11.9018L61.5629 11.4686C61.8091 10.872 62.15 10.3961 62.5856 10.041C63.0212 9.68116 63.5089 9.42311 64.0487 9.26686C64.5884 9.10587 65.1353 9.02538 65.6893 9.02538C66.1059 9.02538 66.5392 9.07983 66.989 9.18873C67.4435 9.29763 67.8649 9.48703 68.2532 9.75691C68.6415 10.0221 68.9563 10.3938 69.1978 10.872C69.4393 11.3455 69.56 11.9468 69.56 12.6759V20.0836H68.2958V18.3578H68.2177C68.0662 18.6797 67.8413 18.9922 67.543 19.2953C67.2447 19.5983 66.8706 19.8469 66.4208 20.041C65.971 20.2351 65.4431 20.3322 64.837 20.3322ZM65.0075 19.1745C65.6798 19.1745 66.2622 19.0254 66.7546 18.7271C67.247 18.4288 67.6258 18.0334 67.891 17.541C68.1609 17.0438 68.2958 16.497 68.2958 15.9004V14.3237C68.2011 14.4136 68.0425 14.4941 67.82 14.5652C67.6022 14.6362 67.3488 14.7001 67.06 14.7569C66.7759 14.809 66.4918 14.854 66.2077 14.8919C65.9237 14.9297 65.668 14.9629 65.4407 14.9913C64.8252 15.067 64.2996 15.1854 63.864 15.3464C63.4284 15.5074 63.0946 15.7299 62.8626 16.014C62.6306 16.2934 62.5146 16.6532 62.5146 17.0936C62.5146 17.7564 62.7513 18.2702 63.2248 18.6348C63.6983 18.9946 64.2925 19.1745 65.0075 19.1745ZM77.1843 20.3109C76.2089 20.3109 75.359 20.067 74.6346 19.5794C73.9149 19.0917 73.3562 18.4241 72.9585 17.5765C72.5607 16.729 72.3619 15.7631 72.3619 14.6788C72.3619 13.585 72.5631 12.612 72.9656 11.7598C73.3728 10.9075 73.9362 10.2399 74.6559 9.75691C75.3756 9.26922 76.2113 9.02538 77.163 9.02538C77.8922 9.02538 78.5527 9.16742 79.1445 9.45152C79.7364 9.73087 80.2241 10.1262 80.6076 10.6376C80.9959 11.1442 81.2397 11.7361 81.3391 12.4132H80.0607C79.9281 11.7976 79.6085 11.2721 79.1019 10.8365C78.6 10.3961 77.9608 10.1759 77.1843 10.1759C76.4883 10.1759 75.8728 10.3653 75.3377 10.7441C74.8027 11.1182 74.3836 11.6414 74.0806 12.3137C73.7823 12.9813 73.6332 13.7555 73.6332 14.6362C73.6332 15.5216 73.7799 16.3052 74.0735 16.987C74.3671 17.6641 74.779 18.1944 75.3093 18.5779C75.8443 18.9615 76.4693 19.1532 77.1843 19.1532C77.6673 19.1532 78.1076 19.0633 78.5053 18.8833C78.9078 18.6987 79.244 18.4383 79.5138 18.1021C79.7885 17.7659 79.9731 17.3658 80.0678 16.9018H81.3462C81.2515 17.5599 81.0172 18.1471 80.6431 18.6632C80.2738 19.1745 79.7932 19.577 79.2013 19.8705C78.6142 20.1641 77.9419 20.3109 77.1843 20.3109ZM88.3526 9.17453V10.2754H83.1467V9.17453H88.3526ZM84.7731 6.56089H86.0444V17.2356C86.0444 17.6902 86.1225 18.0476 86.2788 18.308C86.435 18.5637 86.6386 18.746 86.8896 18.8549C87.1405 18.9591 87.408 19.0112 87.6921 19.0112C87.8578 19.0112 87.9999 19.0017 88.1183 18.9828C88.2366 18.9591 88.3408 18.9354 88.4308 18.9117L88.7006 20.0552C88.5775 20.1026 88.426 20.1452 88.2461 20.183C88.0662 20.2257 87.8436 20.247 87.5785 20.247C87.1145 20.247 86.667 20.1452 86.2362 19.9416C85.81 19.738 85.4596 19.4349 85.185 19.0325C84.9104 18.63 84.7731 18.1305 84.7731 17.5339V6.56089ZM93.049 5.53816V20.0836H91.7209V5.53816H93.049ZM96.6534 20.0836V9.17453H97.8821V10.8507H97.9957C98.2135 10.2872 98.5758 9.84451 99.0824 9.52254C99.5938 9.19583 100.207 9.03248 100.922 9.03248C101.675 9.03248 102.293 9.21004 102.776 9.56515C103.263 9.91553 103.628 10.3985 103.869 11.014H103.962C104.208 10.408 104.608 9.92737 105.162 9.57225C105.721 9.21241 106.398 9.03248 107.193 9.03248C108.206 9.03248 109.007 9.35208 109.594 9.99129C110.181 10.6258 110.474 11.5538 110.474 12.7754V20.0836H109.21V12.7754C109.21 11.9136 108.99 11.2673 108.55 10.8365C108.109 10.4056 107.529 10.1902 106.81 10.1902C105.976 10.1902 105.335 10.4458 104.885 10.9572C104.435 11.4686 104.21 12.1172 104.21 12.9032V20.0836H102.918V12.6617C102.918 11.9231 102.712 11.3265 102.3 10.872C101.888 10.4174 101.308 10.1902 100.56 10.1902C100.058 10.1902 99.6056 10.3133 99.2031 10.5595C98.8054 10.8057 98.4905 11.149 98.2585 11.5893C98.0313 12.0249 97.9176 12.5268 97.9176 13.095V20.0836H96.6534ZM118.061 20.3109C117.119 20.3109 116.286 20.0718 115.561 19.5936C114.842 19.1153 114.278 18.4548 113.871 17.612C113.464 16.7645 113.26 15.7867 113.26 14.6788C113.26 13.5614 113.464 12.5789 113.871 11.7313C114.278 10.8791 114.842 10.2162 115.561 9.74271C116.286 9.26449 117.119 9.02538 118.061 9.02538C119.004 9.02538 119.835 9.26449 120.554 9.74271C121.274 10.2209 121.837 10.8838 122.245 11.7313C122.657 12.5789 122.863 13.5614 122.863 14.6788C122.863 15.7867 122.659 16.7645 122.252 17.612C121.845 18.4548 121.279 19.1153 120.554 19.5936C119.835 20.0718 119.004 20.3109 118.061 20.3109ZM118.061 19.1532C118.819 19.1532 119.461 18.9496 119.986 18.5424C120.512 18.1352 120.909 17.5931 121.179 16.916C121.454 16.2389 121.591 15.4932 121.591 14.6788C121.591 13.8644 121.454 13.1163 121.179 12.4345C120.909 11.7527 120.512 11.2058 119.986 10.7938C119.461 10.3819 118.819 10.1759 118.061 10.1759C117.309 10.1759 116.667 10.3819 116.137 10.7938C115.611 11.2058 115.211 11.7527 114.936 12.4345C114.667 13.1163 114.532 13.8644 114.532 14.6788C114.532 15.4932 114.667 16.2389 114.936 16.916C115.211 17.5931 115.611 18.1352 116.137 18.5424C116.662 18.9496 117.304 19.1532 118.061 19.1532ZM117.472 7.66174L119.29 4.43731H120.789L118.608 7.66174H117.472ZM133.692 9.17453L129.707 20.0836H128.358L124.374 9.17453H125.744L128.983 18.4146H129.082L132.321 9.17453H133.692ZM140.185 20.3109C139.167 20.3109 138.286 20.0741 137.543 19.6007C136.8 19.1224 136.224 18.4619 135.817 17.6191C135.415 16.7716 135.213 15.7962 135.213 14.693C135.213 13.5945 135.415 12.6191 135.817 11.7669C136.224 10.9098 136.785 10.2399 137.5 9.75691C138.22 9.26922 139.051 9.02538 139.993 9.02538C140.585 9.02538 141.156 9.13428 141.705 9.35208C142.254 9.56515 142.747 9.89422 143.182 10.3393C143.623 10.7796 143.971 11.336 144.226 12.0083C144.482 12.6759 144.61 13.4667 144.61 14.3805V15.0055H136.087V13.8904H143.317C143.317 13.1897 143.175 12.5599 142.891 12.0012C142.612 11.4378 142.221 10.9927 141.719 10.666C141.222 10.3393 140.647 10.1759 139.993 10.1759C139.302 10.1759 138.694 10.3606 138.168 10.7299C137.642 11.0992 137.23 11.5869 136.932 12.193C136.639 12.7991 136.489 13.4619 136.485 14.1816V14.8492C136.485 15.7157 136.634 16.4733 136.932 17.122C137.235 17.7659 137.664 18.2654 138.218 18.6205C138.772 18.9757 139.427 19.1532 140.185 19.1532C140.701 19.1532 141.153 19.0727 141.542 18.9117C141.935 18.7508 142.264 18.5353 142.529 18.2654C142.799 17.9908 143.002 17.6902 143.14 17.3634L144.34 17.7541C144.174 18.2134 143.902 18.6371 143.523 19.0254C143.149 19.4136 142.68 19.7261 142.117 19.9629C141.558 20.1949 140.914 20.3109 140.185 20.3109ZM147.41 20.0836V9.17453H148.681V20.0836H147.41ZM148.056 7.29953C147.796 7.29953 147.573 7.21193 147.388 7.03674C147.204 6.85682 147.112 6.64138 147.112 6.39044C147.112 6.13949 147.204 5.92642 147.388 5.75123C147.573 5.57131 147.796 5.48134 148.056 5.48134C148.317 5.48134 148.539 5.57131 148.724 5.75123C148.908 5.92642 149.001 6.13949 149.001 6.39044C149.001 6.64138 148.908 6.85682 148.724 7.03674C148.539 7.21193 148.317 7.29953 148.056 7.29953ZM159.354 11.568L158.196 11.8947C158.083 11.568 157.922 11.2721 157.713 11.0069C157.505 10.7418 157.233 10.5311 156.897 10.3748C156.565 10.2186 156.153 10.1404 155.661 10.1404C154.922 10.1404 154.316 10.3156 153.843 10.666C153.369 11.0164 153.132 11.4686 153.132 12.0225C153.132 12.4913 153.293 12.8724 153.615 13.166C153.942 13.4548 154.444 13.6845 155.121 13.8549L156.769 14.2598C157.683 14.4823 158.367 14.835 158.821 15.318C159.281 15.8009 159.51 16.407 159.51 17.1362C159.51 17.7517 159.34 18.2986 158.999 18.7768C158.658 19.255 158.182 19.6314 157.571 19.9061C156.965 20.1759 156.262 20.3109 155.462 20.3109C154.397 20.3109 153.518 20.0718 152.827 19.5936C152.136 19.1106 151.693 18.4146 151.499 17.5055L152.713 17.2072C152.87 17.8559 153.175 18.3459 153.63 18.6774C154.089 19.0088 154.693 19.1745 155.441 19.1745C156.279 19.1745 156.949 18.9875 157.451 18.6134C157.953 18.2347 158.203 17.7612 158.203 17.193C158.203 16.7527 158.057 16.3833 157.763 16.085C157.47 15.782 157.025 15.5595 156.428 15.4174L154.645 14.9913C153.698 14.764 152.998 14.4042 152.543 13.9117C152.088 13.4193 151.861 12.8085 151.861 12.0794C151.861 11.478 152.025 10.9501 152.351 10.4955C152.678 10.0363 153.128 9.67642 153.701 9.416C154.274 9.15559 154.927 9.02538 155.661 9.02538C156.66 9.02538 157.458 9.25265 158.054 9.7072C158.656 10.157 159.089 10.7773 159.354 11.568Z" fill="#55B685"/>
</svg>
